<?xml version="1.0" encoding="UTF-8" standalone="no"?>
<svg
   viewBox="0 0 62 66"
   x="0px"
   y="0px"
   version="1.1"
   id="svg28"
   width="62"
   height="66"
   xmlns="http://www.w3.org/2000/svg"
   xmlns:svg="http://www.w3.org/2000/svg">
  <defs
     id="defs32" />
  <title
     id="title2">finish line</title>
  <g
     data-name="Layer 25"
     id="g22"
     transform="translate(-5,-3)">
    <path
       d="M 67,44 V 18 A 5.00588,5.00588 0 0 0 62,13 H 55 V 8 A 5.00588,5.00588 0 0 0 50,3 H 10 A 5.00588,5.00588 0 0 0 5,8 v 46 a 5.00588,5.00588 0 0 0 5,5 h 7 v 5 a 5.00588,5.00588 0 0 0 5,5 h 40 a 5.00588,5.00588 0 0 0 5,-5 v -8 a 1,1 0 0 0 -2,0 v 8 a 3.00328,3.00328 0 0 1 -3,3 H 22 a 3.00328,3.00328 0 0 1 -3,-3 v -5 h 26 a 1,1 0 0 0 0,-2 H 10 A 3.00328,3.00328 0 0 1 7,54 V 8 a 3.00328,3.00328 0 0 1 3,-3 h 40 a 3.00328,3.00328 0 0 1 3,3 v 26 a 1,1 0 0 0 2,0 V 15 h 7 a 3.00328,3.00328 0 0 1 3,3 v 26 a 1,1 0 0 0 2,0 z"
       id="path4" />
    <path
       d="m 51,65 h 6 a 3.00328,3.00328 0 0 0 3,-3 v -8 a 1.00067,1.00067 0 0 1 1,-1 h 1.79785 a 3.00038,3.00038 0 0 0 2.3291,-4.8916 L 56.32813,37.2793 a 3.00091,3.00091 0 0 0 -4.65625,0 L 42.87305,48.1084 A 3.00038,3.00038 0 0 0 45.20215,53 H 47 a 1.00067,1.00067 0 0 1 1,1 v 8 a 3.00328,3.00328 0 0 0 3,3 z M 47,51 H 45.20215 A 0.99955,0.99955 0 0 1 44.42578,49.37012 L 53.22461,38.541 a 0.99894,0.99894 0 0 1 1.55078,0 l 8.79883,10.8291 A 0.99955,0.99955 0 0 1 62.79785,51 H 61 a 3.00328,3.00328 0 0 0 -3,3 v 8 a 1.00067,1.00067 0 0 1 -1,1 h -6 a 1.00067,1.00067 0 0 1 -1,-1 v -8 a 3.00328,3.00328 0 0 0 -3,-3 z"
       id="path6" />
    <path
       d="m 46,14 a 1,1 0 0 0 0,-2 H 20 a 1,1 0 0 0 0,2 z"
       id="path8" />
    <path
       d="m 13,19 a 0.99943,0.99943 0 0 0 1,1 h 32 a 1,1 0 0 0 0,-2 H 14 a 0.99943,0.99943 0 0 0 -1,1 z"
       id="path10" />
    <path
       d="m 14,26 h 32 a 1,1 0 0 0 0,-2 H 14 a 1,1 0 0 0 0,2 z"
       id="path12" />
    <path
       d="m 14,32 h 32 a 1,1 0 0 0 0,-2 H 14 a 1,1 0 0 0 0,2 z"
       id="path14" />
    <path
       d="m 14,38 h 32 a 1,1 0 0 0 0,-2 H 14 a 1,1 0 0 0 0,2 z"
       id="path16" />
    <path
       d="M 45,43 A 0.99943,0.99943 0 0 0 44,42 H 14 a 1,1 0 0 0 0,2 h 30 a 0.99943,0.99943 0 0 0 1,-1 z"
       id="path18" />
    <path
       d="m 14,48 a 1,1 0 0 0 0,2 h 26 a 1,1 0 0 0 0,-2 z"
       id="path20" />
  </g>
</svg>
