<?xml version="1.0" encoding="UTF-8" standalone="no"?>
<svg
   version="1.1"
   x="0px"
   y="0px"
   viewBox="0 0 801792 674560"
   xml:space="preserve"
   id="svg20"
   width="801792"
   height="674560"
   xmlns="http://www.w3.org/2000/svg"
   xmlns:svg="http://www.w3.org/2000/svg"><defs
     id="defs24" /><g
     id="g14"
     transform="translate(-123392,-318080)"><path
       d="m 288.46,455.92 c 5.44,18.24 14.75,34.96 26.29,47.22 13.38,14.21 28.88,21.72 44.83,21.72 15.95,0 31.44,-7.51 44.83,-21.72 11.54,-12.25 20.85,-28.98 26.29,-47.22 10.63,-0.68 19.06,-9.55 19.06,-20.35 v -6.48 c 0,-8.09 -6.16,-14.78 -14.04,-15.6 -3.03,-41.97 -32.76,-68.99 -76.14,-68.99 -43.37,0 -73.11,27.02 -76.14,68.99 -7.88,0.82 -14.04,7.51 -14.04,15.6 v 6.48 c 0,10.8 8.44,19.66 19.06,20.35 z m -4.06,-26.83 c 0,-0.38 0.31,-0.69 0.69,-0.69 7.02,0 12.84,-5.5 13.23,-12.53 2.34,-41.56 33.18,-56.37 61.26,-56.37 28.08,0 58.92,14.81 61.26,56.37 0.4,7.03 6.21,12.53 13.23,12.53 0.38,0 0.69,0.31 0.69,0.69 v 6.48 c 0,2.97 -2.42,5.39 -5.39,5.39 -5.87,0 -11.11,3.95 -12.73,9.6 -10.05,34.92 -33.51,59.3 -57.06,59.3 -23.54,0 -47,-24.39 -57.06,-59.3 -1.63,-5.65 -6.86,-9.6 -12.73,-9.6 -2.97,0 -5.39,-2.42 -5.39,-5.39 z"
       id="path2" /><path
       d="m 471.88,554.93 -61.52,-15.38 c -7.56,-1.89 -15.47,0.92 -20.16,7.16 l -27.14,36.2 c -1.13,1.51 -2.66,1.74 -3.47,1.74 v 0 c -0.81,0 -2.34,-0.23 -3.47,-1.73 l -27.15,-36.21 c -4.68,-6.24 -12.59,-9.04 -20.16,-7.16 l -61.52,15.38 c -13.29,3.33 -25.26,11.1 -33.68,21.89 -8.45,10.8 -13.1,24.3 -13.1,38.03 V 672 h 15 v -57.16 c 0,-10.39 3.52,-20.61 9.92,-28.79 6.38,-8.17 15.44,-14.05 25.5,-16.57 l 61.52,-15.38 c 1.69,-0.43 3.47,0.21 4.52,1.61 l 27.15,36.21 c 3.69,4.92 9.33,7.73 15.47,7.73 0,0 0,0 0,0 6.15,0 11.79,-2.82 15.47,-7.74 l 27.14,-36.2 c 1.05,-1.4 2.83,-2.04 4.53,-1.61 l 61.52,15.38 c 10.08,2.52 19.13,8.41 25.51,16.58 6.39,8.17 9.91,18.4 9.91,28.79 V 672 h 15 v -57.16 c 0,-13.72 -4.65,-27.23 -13.09,-38.02 -8.43,-10.79 -20.39,-18.56 -33.7,-21.89 z"
       id="path4" /><path
       d="M 873.14,248.5 H 150.86 c -16.74,0 -30.36,13.62 -30.36,30.36 v 466.28 c 0,16.74 13.62,30.36 30.36,30.36 h 722.28 c 16.74,0 30.36,-13.62 30.36,-30.36 V 278.86 c 0,-16.74 -13.62,-30.36 -30.36,-30.36 z m 15.36,496.64 c 0,8.47 -6.89,15.36 -15.36,15.36 H 150.86 c -8.47,0 -15.36,-6.89 -15.36,-15.36 V 278.86 c 0,-8.47 6.89,-15.36 15.36,-15.36 h 722.28 c 8.47,0 15.36,6.89 15.36,15.36 z"
       id="path6" /><rect
       x="576"
       y="392.5"
       width="240"
       height="15"
       id="rect8" /><rect
       x="576"
       y="504.5"
       width="240"
       height="15"
       id="rect10" /><rect
       x="576"
       y="616.5"
       width="144"
       height="15"
       id="rect12" /></g></svg>
