<?xml version="1.0" encoding="UTF-8" standalone="no"?>
<svg
   version="1.1"
   x="0px"
   y="0px"
   viewBox="0 0 801792 674560"
   xml:space="preserve"
   id="svg20"
   width="801792"
   height="674560"
   xmlns="http://www.w3.org/2000/svg"
   xmlns:svg="http://www.w3.org/2000/svg"><defs
     id="defs24" /><g
     id="g14"
     transform="translate(-123392,-318080)"><path
       d="M 873.14,248.5 H 150.86 c -16.74,0 -30.36,13.62 -30.36,30.36 v 466.28 c 0,16.74 13.62,30.36 30.36,30.36 h 722.28 c 16.74,0 30.36,-13.62 30.36,-30.36 V 278.86 c 0,-16.74 -13.62,-30.36 -30.36,-30.36 z m 15.36,496.64 c 0,8.47 -6.89,15.36 -15.36,15.36 H 150.86 c -8.47,0 -15.36,-6.89 -15.36,-15.36 V 278.86 c 0,-8.47 6.89,-15.36 15.36,-15.36 h 722.28 c 8.47,0 15.36,6.89 15.36,15.36 z"
       id="path6" /><rect
       x="576"
       y="392.5"
       width="240"
       height="15"
       id="rect8" /><rect
       x="576"
       y="504.5"
       width="240"
       height="15"
       id="rect10" /><rect
       x="576"
       y="616.5"
       width="144"
       height="15"
       id="rect12" /></g></svg>
